<?xml version="1.0" encoding="utf-8"?>
<!-- Generator: Adobe Illustrator 27.9.6, SVG Export Plug-In . SVG Version: 9.03 Build 54986)  -->
<svg version="1.1" id="Layer_1" xmlns="http://www.w3.org/2000/svg" xmlns:xlink="http://www.w3.org/1999/xlink" x="0px" y="0px"
	 viewBox="0 0 1024 1024" style="enable-background:new 0 0 1024 1024;" xml:space="preserve">
<style type="text/css">
	.st0{fill:#FFD35D;}
	.st1{fill:#0E54C1;}
	.st2{fill:none;stroke:#F9AA00;stroke-miterlimit:10;}
	.st3{fill:none;stroke:#0E54C1;stroke-width:9;stroke-miterlimit:10;}
	.st4{fill:#0E54C1;stroke:#0E54C1;stroke-width:9;stroke-miterlimit:10;}
</style>
<g>
	<polygon class="st0" points="624.99,752.36 745.41,752.36 745.41,631.95 697.53,584.07 697.53,704.48 577.11,704.48 	"/>
	<polygon class="st1" points="506.95,327.36 697.53,327.35 697.53,517.94 745.41,565.82 745.41,279.48 459.07,279.48 	"/>
	<polygon class="st0" points="320.4,447.77 320.4,327.36 440.81,327.36 392.94,279.48 272.53,279.48 272.53,399.89 	"/>
	<polygon class="st1" points="510.98,704.48 320.4,704.48 320.4,513.9 272.53,466.02 272.53,752.36 558.86,752.36 	"/>
</g>
<path class="st2" d="M439.03,760.19"/>
<circle class="st3" cx="109.45" cy="399.48" r="14.49"/>
<circle class="st4" cx="180.48" cy="452.94" r="14.49"/>
<circle class="st4" cx="55.11" cy="452.94" r="14.49"/>
<polyline class="st3" points="243.16,390.26 180.48,390.26 117.79,452.94 55.11,452.94 "/>
<line class="st3" x1="243.16" y1="452.94" x2="180.48" y2="452.94"/>
<line class="st3" x1="243.16" y1="515.62" x2="55.11" y2="515.62"/>
<line class="st3" x1="243.16" y1="578.3" x2="117.79" y2="578.3"/>
<polyline class="st3" points="243.16,640.99 180.48,640.99 55.11,640.99 "/>
<line class="st3" x1="243.16" y1="703.67" x2="180.48" y2="703.67"/>
<polyline class="st3" points="243.16,327.58 180.48,327.58 117.79,390.26 "/>
<circle class="st4" cx="55.11" cy="515.62" r="14.49"/>
<circle class="st3" cx="105.32" cy="578.3" r="14.49"/>
<circle class="st4" cx="55.11" cy="640.99" r="14.49"/>
<circle class="st4" cx="180.48" cy="703.67" r="14.49"/>
<line class="st3" x1="383.01" y1="251.03" x2="383.01" y2="188.35"/>
<line class="st3" x1="508.37" y1="251.03" x2="508.37" y2="125.67"/>
<line class="st3" x1="571.06" y1="251.03" x2="571.06" y2="62.98"/>
<polyline class="st3" points="633.74,251.03 633.74,188.35 696.42,125.67 696.42,62.98 "/>
<line class="st3" x1="696.42" y1="251.03" x2="696.42" y2="188.35"/>
<circle class="st3" cx="383.01" cy="173.86" r="14.49"/>
<circle class="st4" cx="445.69" cy="125.67" r="14.49"/>
<circle class="st4" cx="383.01" cy="62.98" r="14.49"/>
<circle class="st4" cx="508.37" cy="125.67" r="14.49"/>
<circle class="st4" cx="571.06" cy="62.98" r="14.49"/>
<circle class="st4" cx="696.42" cy="188.35" r="14.49"/>
<circle class="st3" cx="696.42" cy="48.49" r="14.49"/>
<line class="st3" x1="445.69" y1="251.03" x2="445.69" y2="125.67"/>
<polyline class="st3" points="320.33,251.03 320.33,125.67 383.01,62.98 "/>
<line class="st3" x1="774.86" y1="328" x2="900.22" y2="328"/>
<polyline class="st3" points="774.86,390.68 837.54,390.68 900.22,453.36 962.9,453.36 "/>
<line class="st3" x1="774.86" y1="453.36" x2="837.54" y2="453.36"/>
<line class="st3" x1="774.86" y1="516.05" x2="962.9" y2="516.05"/>
<line class="st3" x1="774.86" y1="578.73" x2="900.22" y2="578.73"/>
<line class="st3" x1="774.86" y1="641.41" x2="837.54" y2="641.41"/>
<polyline class="st3" points="774.86,704.09 837.54,704.09 900.22,641.41 962.9,641.41 "/>
<circle class="st4" cx="900.22" cy="328" r="14.49"/>
<circle class="st4" cx="837.54" cy="452.78" r="14.49"/>
<circle class="st4" cx="962.9" cy="516.05" r="14.49"/>
<circle class="st4" cx="900.22" cy="578.73" r="14.49"/>
<circle class="st4" cx="837.54" cy="641.41" r="14.49"/>
<circle class="st3" cx="977.39" cy="452.78" r="14.49"/>
<circle class="st3" cx="977.39" cy="641.41" r="14.49"/>
<polyline class="st3" points="314.38,780.97 314.38,843.65 377.06,906.33 "/>
<line class="st3" x1="377.06" y1="780.97" x2="377.06" y2="843.65"/>
<line class="st3" x1="439.74" y1="780.97" x2="439.74" y2="969.02"/>
<polyline class="st3" points="565.11,780.97 565.11,843.65 627.79,906.33 627.79,969.02 "/>
<line class="st3" x1="627.79" y1="780.97" x2="627.79" y2="843.65"/>
<line class="st3" x1="502.43" y1="780.97" x2="502.43" y2="906.33"/>
<line class="st3" x1="690.47" y1="780.97" x2="690.47" y2="906.33"/>
<circle class="st4" cx="377.06" cy="906.33" r="14.49"/>
<circle class="st4" cx="377.06" cy="843.65" r="14.49"/>
<circle class="st4" cx="627.79" cy="969.02" r="14.49"/>
<circle class="st4" cx="627.79" cy="843.65" r="14.49"/>
<circle class="st4" cx="690.47" cy="906.33" r="14.49"/>
<circle class="st3" cx="439.74" cy="983.51" r="14.49"/>
<circle class="st3" cx="502.43" cy="920.83" r="14.49"/>
<polygon class="st3" points="434.4,430.07 435.42,429.05 643.4,637.02 630.41,650 422.44,442.03 423.46,441.01 390.71,430.28 
	374.62,381.26 423.67,397.32 "/>
<rect x="419.75" y="435.54" transform="matrix(0.7071 -0.7071 0.7071 0.7071 -182.3414 430.866)" class="st3" width="18.36" height="0"/>
<polyline class="st3" points="434.82,454.41 434.82,454.41 447.8,441.43 "/>
<polyline class="st3" points="521.98,515.61 595.57,442.01 594.55,441 627.3,430.27 643.4,381.24 594.34,397.3 583.61,430.05 
	582.59,429.03 509,502.63 "/>
<polyline class="st3" points="496.02,515.61 374.62,637.01 387.6,649.99 509,528.59 "/>
<polyline class="st3" points="595.57,442.01 582.59,429.03 582.59,429.03 "/>
<polyline class="st3" points="570.21,441.42 583.19,454.4 583.19,454.4 "/>
</svg>
